ffmpeg started on 2015-06-30 at 23:22:14
Report written to "pcm_test_alaw_ar-128000_ac-4.txt"
Command line:
ffmpeg -y -f lavfi -i sine -c:a pcm_alaw -ar 128000 -ac 4 -t 1 pcm_test_alaw_ar-128000_ac-4.mka
ffmpeg version 2.6.3 Copyright (c) 2000-2015 the FFmpeg developers
  built with Apple LLVM version 6.1.0 (clang-602.0.49) (based on LLVM 3.6.0svn)
  configuration: --prefix=/usr/local/Cellar/ffmpeg/2.6.3 --enable-shared --enable-pthreads --enable-gpl --enable-version3 --enable-hardcoded-tables --enable-avresample --cc=clang --host-cflags= --host-ldflags= --enable-libx264 --enable-libmp3lame --enable-libvo-aacenc --enable-libxvid --enable-libfaac --enable-ffplay --enable-nonfree --enable-vda
  libavutil      54. 20.100 / 54. 20.100
  libavcodec     56. 26.100 / 56. 26.100
  libavformat    56. 25.101 / 56. 25.101
  libavdevice    56.  4.100 / 56.  4.100
  libavfilter     5. 11.102 /  5. 11.102
  libavresample   2.  1.  0 /  2.  1.  0
  libswscale      3.  1.101 /  3.  1.101
  libswresample   1.  1.100 /  1.  1.100
  libpostproc    53.  3.100 / 53.  3.100
Splitting the commandline.
Reading option '-y' ... matched as option 'y' (overwrite output files) with argument '1'.
Reading option '-f' ... matched as option 'f' (force format) with argument 'lavfi'.
Reading option '-i' ... matched as input file with argument 'sine'.
Reading option '-c:a' ... matched as option 'c' (codec name) with argument 'pcm_alaw'.
Reading option '-ar' ... matched as option 'ar' (set audio sampling rate (in Hz)) with argument '128000'.
Reading option '-ac' ... matched as option 'ac' (set number of audio channels) with argument '4'.
Reading option '-t' ... matched as option 't' (record or transcode "duration" seconds of audio/video) with argument '1'.
Reading option 'pcm_test_alaw_ar-128000_ac-4.mka' ... matched as output file.
Finished splitting the commandline.
Parsing a group of options: global .
Applying option y (overwrite output files) with argument 1.
Successfully parsed a group of options.
Parsing a group of options: input file sine.
Applying option f (force format) with argument lavfi.
Successfully parsed a group of options.
Opening an input file: sine.
detected 4 logical cores
[AVFilterGraph @ 0x7f8040c17b80] query_formats: 2 queried, 3 merged, 0 already done, 0 delayed
[lavfi @ 0x7f804100a000] All info found
Input #0, lavfi, from 'sine':
  Duration: N/A, start: 0.000000, bitrate: 705 kb/s
    Stream #0:0, 1, 1/44100: Audio: pcm_s16le, 44100 Hz, mono, s16, 705 kb/s
Successfully opened the file.
Parsing a group of options: output file pcm_test_alaw_ar-128000_ac-4.mka.
Applying option c:a (codec name) with argument pcm_alaw.
Applying option ar (set audio sampling rate (in Hz)) with argument 128000.
Applying option ac (set number of audio channels) with argument 4.
Applying option t (record or transcode "duration" seconds of audio/video) with argument 1.
Successfully parsed a group of options.
Opening an output file: pcm_test_alaw_ar-128000_ac-4.mka.
Successfully opened the file.
[graph 0 input from stream 0:0 @ 0x7f8040e00e20] Setting 'time_base' to value '1/44100'
[graph 0 input from stream 0:0 @ 0x7f8040e00e20] Setting 'sample_rate' to value '44100'
[graph 0 input from stream 0:0 @ 0x7f8040e00e20] Setting 'sample_fmt' to value 's16'
[graph 0 input from stream 0:0 @ 0x7f8040e00e20] Setting 'channel_layout' to value '0x4'
[graph 0 input from stream 0:0 @ 0x7f8040e00e20] tb:1/44100 samplefmt:s16 samplerate:44100 chlayout:0x4
[audio format for output stream 0:0 @ 0x7f8040e01300] Setting 'sample_fmts' to value 's16'
[audio format for output stream 0:0 @ 0x7f8040e01300] Setting 'sample_rates' to value '128000'
[audio format for output stream 0:0 @ 0x7f8040e01300] Setting 'channel_layouts' to value '0x107'
[audio format for output stream 0:0 @ 0x7f8040e01300] auto-inserting filter 'auto-inserted resampler 0' between the filter 'Parsed_anull_0' and the filter 'audio format for output stream 0:0'
[AVFilterGraph @ 0x7f8040f00560] query_formats: 5 queried, 9 merged, 3 already done, 0 delayed
0.000000 
0.000000 
1.000000 
0.000000 
[auto-inserted resampler 0 @ 0x7f8040e01fe0] ch:1 chl:mono fmt:s16 r:44100Hz -> ch:4 chl:4.0 fmt:s16 r:128000Hz
Output #0, matroska, to 'pcm_test_alaw_ar-128000_ac-4.mka':
  Metadata:
    encoder         : Lavf56.25.101
    Stream #0:0, 0, 1/1000: Audio: pcm_alaw ([6][0][0][0] / 0x0006), 128000 Hz, 4.0, s16, 4096 kb/s
    Metadata:
      encoder         : Lavc56.26.100 pcm_alaw
Stream mapping:
  Stream #0:0 -> #0:0 (pcm_s16le (native) -> pcm_alaw (native))
Press [q] to stop, [?] for help
[matroska @ 0x7f804103e600] Writing block at offset 635, size 11704, pts 0, dts 0, duration 23, flags 128
[matroska @ 0x7f804103e600] Writing block at offset 12346, size 11888, pts 23, dts 23, duration 23, flags 128
[matroska @ 0x7f804103e600] Writing block at offset 24241, size 11892, pts 46, dts 46, duration 23, flags 128
[matroska @ 0x7f804103e600] Writing block at offset 36140, size 11888, pts 69, dts 69, duration 23, flags 128
[matroska @ 0x7f804103e600] Writing block at offset 48035, size 11888, pts 93, dts 93, duration 23, flags 128
[matroska @ 0x7f804103e600] Writing block at offset 59930, size 11888, pts 116, dts 116, duration 23, flags 128
[matroska @ 0x7f804103e600] Writing block at offset 71825, size 11888, pts 139, dts 139, duration 23, flags 128
[matroska @ 0x7f804103e600] Writing block at offset 83720, size 11888, pts 162, dts 162, duration 23, flags 128
[matroska @ 0x7f804103e600] Writing block at offset 95615, size 11888, pts 185, dts 185, duration 23, flags 128
[matroska @ 0x7f804103e600] Writing block at offset 107510, size 11892, pts 209, dts 209, duration 23, flags 128
[matroska @ 0x7f804103e600] Writing block at offset 119409, size 11888, pts 232, dts 232, duration 23, flags 128
[matroska @ 0x7f804103e600] Writing block at offset 131304, size 11888, pts 255, dts 255, duration 23, flags 128
[matroska @ 0x7f804103e600] Writing block at offset 143199, size 11888, pts 278, dts 278, duration 23, flags 128
[matroska @ 0x7f804103e600] Writing block at offset 155094, size 11888, pts 302, dts 302, duration 23, flags 128
[matroska @ 0x7f804103e600] Writing block at offset 166989, size 11888, pts 325, dts 325, duration 23, flags 128
[matroska @ 0x7f804103e600] Writing block at offset 178884, size 11892, pts 348, dts 348, duration 23, flags 128
[matroska @ 0x7f804103e600] Writing block at offset 190783, size 11888, pts 371, dts 371, duration 23, flags 128
[matroska @ 0x7f804103e600] Writing block at offset 202678, size 11888, pts 394, dts 394, duration 23, flags 128
[matroska @ 0x7f804103e600] Writing block at offset 214573, size 11888, pts 418, dts 418, duration 23, flags 128
[matroska @ 0x7f804103e600] Writing block at offset 226468, size 11888, pts 441, dts 441, duration 23, flags 128
[matroska @ 0x7f804103e600] Writing block at offset 238363, size 11888, pts 464, dts 464, duration 23, flags 128
[matroska @ 0x7f804103e600] Writing block at offset 250258, size 11888, pts 487, dts 487, duration 23, flags 128
[matroska @ 0x7f804103e600] Writing block at offset 262153, size 11892, pts 510, dts 510, duration 23, flags 128
[matroska @ 0x7f804103e600] Writing block at offset 274052, size 11888, pts 534, dts 534, duration 23, flags 128
[matroska @ 0x7f804103e600] Writing block at offset 285947, size 11888, pts 557, dts 557, duration 23, flags 128
[matroska @ 0x7f804103e600] Writing block at offset 297842, size 11888, pts 580, dts 580, duration 23, flags 128
[matroska @ 0x7f804103e600] Writing block at offset 309737, size 11888, pts 603, dts 603, duration 23, flags 128
[matroska @ 0x7f804103e600] Writing block at offset 321632, size 11888, pts 627, dts 627, duration 23, flags 128
[matroska @ 0x7f804103e600] Writing block at offset 333527, size 11892, pts 650, dts 650, duration 23, flags 128
[matroska @ 0x7f804103e600] Writing block at offset 345426, size 11888, pts 673, dts 673, duration 23, flags 128
[matroska @ 0x7f804103e600] Writing block at offset 357321, size 11888, pts 696, dts 696, duration 23, flags 128
[matroska @ 0x7f804103e600] Writing block at offset 369216, size 11888, pts 719, dts 719, duration 23, flags 128
[matroska @ 0x7f804103e600] Writing block at offset 381111, size 11888, pts 743, dts 743, duration 23, flags 128
[matroska @ 0x7f804103e600] Writing block at offset 393006, size 11888, pts 766, dts 766, duration 23, flags 128
[matroska @ 0x7f804103e600] Writing block at offset 404901, size 11888, pts 789, dts 789, duration 23, flags 128
[matroska @ 0x7f804103e600] Writing block at offset 416796, size 11892, pts 812, dts 812, duration 23, flags 128
[matroska @ 0x7f804103e600] Writing block at offset 428695, size 11888, pts 836, dts 836, duration 23, flags 128
[matroska @ 0x7f804103e600] Writing block at offset 440590, size 11888, pts 859, dts 859, duration 23, flags 128
[matroska @ 0x7f804103e600] Writing block at offset 452485, size 11888, pts 882, dts 882, duration 23, flags 128
[matroska @ 0x7f804103e600] Writing block at offset 464380, size 11888, pts 905, dts 905, duration 23, flags 128
[matroska @ 0x7f804103e600] Writing block at offset 476275, size 11888, pts 928, dts 928, duration 23, flags 128
[matroska @ 0x7f804103e600] Writing block at offset 488170, size 11892, pts 952, dts 952, duration 23, flags 128
[matroska @ 0x7f804103e600] Writing block at offset 500069, size 11888, pts 975, dts 975, duration 23, flags 128
[output stream 0:0 @ 0x7f8040e010a0] EOF on sink link output stream 0:0:default.
No more output streams to write to, finishing.
[matroska @ 0x7f804103e600] Writing block at offset 511964, size 972, pts 998, dts 998, duration 2, flags 128
[matroska @ 0x7f804103e600] end duration = 1000
size=     501kB time=00:00:01.00 bitrate=4103.5kbits/s    
video:0kB audio:500kB subtitle:0kB other streams:0kB global headers:0kB muxing overhead: 0.184180%
Input file #0 (sine):
  Input stream #0:0 (audio): 45 packets read (92160 bytes); 45 frames decoded (46080 samples); 
  Total: 45 packets (92160 bytes) demuxed
Output file #0 (pcm_test_alaw_ar-128000_ac-4.mka):
  Output stream #0:0 (audio): 44 frames encoded (128000 samples); 44 packets muxed (512000 bytes); 
  Total: 44 packets (512000 bytes) muxed
45 frames successfully decoded, 0 decoding errors
[AVIOContext @ 0x7f8040f00440] Statistics: 16 seeks, 56 writeouts
